<?xml version="1.0" encoding="utf-8"?>
<!-- Generator: Adobe Illustrator 17.0.0, SVG Export Plug-In . SVG Version: 6.00 Build 0)  -->
<!DOCTYPE svg PUBLIC "-//W3C//DTD SVG 1.1//EN" "http://www.w3.org/Graphics/SVG/1.1/DTD/svg11.dtd">
<svg version="1.1" id="Layer_1" xmlns="http://www.w3.org/2000/svg" xmlns:xlink="http://www.w3.org/1999/xlink" x="0px" y="0px"
	 width="200px" height="200px" viewBox="0 0 200 200" enable-background="new 0 0 200 200" xml:space="preserve">
<circle fill="#FFFFFF" cx="52.909" cy="134.752" r="9.676"/>
<g>
	<circle fill="#236E82" cx="83.01" cy="86.312" r="15.44"/>
	<circle fill="#236E82" cx="153.49" cy="62.504" r="15.44"/>
	<circle fill="#236E82" cx="132.957" cy="165.469" r="13.906"/>
	<circle fill="#236E82" cx="59.876" cy="30.775" r="21.502"/>
</g>
<g opacity="0.2">
	<path fill="#9DDAE8" d="M153.178,58.239c-20.714,9.572-35.087,30.533-35.087,54.85c0,19.795,9.524,37.366,24.24,48.38
		l35.286-60.703L153.178,58.239z"/>
	<path fill="#9DDAE8" d="M80.14,129.673c-0.169,0-0.336,0.011-0.505,0.013l-23.758,41.368h65.644
		C121.52,148.2,102.993,129.673,80.14,129.673z"/>
	<path fill="#9DDAE8" d="M111.694,72.504c0.169,0,0.336-0.011,0.505-0.013l23.758-41.368H70.314
		C70.314,53.977,88.84,72.504,111.694,72.504z"/>
	<path fill="#9DDAE8" d="M39.735,143.061c20.714-9.572,35.087-30.533,35.087-54.85c0-19.795-9.524-37.366-24.24-48.38
		l-35.286,60.703L39.735,143.061z"/>
	<circle fill="#9DDAE8" cx="97.457" cy="100.766" r="18.162"/>
</g>
<g opacity="0.2">
	<path d="M18.899,101.161l33.698-58.367c0.64-1.109,0.26-2.526-0.848-3.166c-1.11-0.642-2.527-0.26-3.166,0.848L36.34,61.681
		L3.957,29.298c-0.905-0.905-2.373-0.905-3.278,0s-0.905,2.373,0,3.278L33.94,65.837l-3.411,5.909L11.04,52.256
		c-0.905-0.905-2.373-0.905-3.278,0s-0.905,2.373,0,3.278L28.13,75.902l-13.914,24.1c-0.414,0.717-0.414,1.601,0,2.318
		l23.606,40.886c0.429,0.743,1.208,1.159,2.01,1.159c0.393,0,0.792-0.1,1.157-0.311c1.109-0.64,1.489-2.058,0.848-3.166
		L18.899,101.161z"/>
	<path d="M101.399,103.479h38.753l-5.105,5.105c-0.905,0.905-0.905,2.372,0,3.278c0.453,0.453,1.046,0.679,1.639,0.679
		s1.186-0.226,1.639-0.679l8.384-8.383h12.947c1.28,0,2.318-1.038,2.318-2.318s-1.038-2.318-2.318-2.318h-12.948l-8.673-8.673
		c-0.905-0.905-2.372-0.905-3.278,0c-0.905,0.905-0.905,2.373,0,3.278l5.396,5.395h-38.966l6.592-11.418
		c0.64-1.109,0.26-2.526-0.848-3.166c-1.106-0.639-2.526-0.261-3.166,0.848L97.277,96.34L60.818,33.192h39.878l-5.25,5.25
		c-0.905,0.905-0.905,2.373,0,3.278c0.452,0.453,1.046,0.679,1.639,0.679s1.187-0.226,1.639-0.679l8.528-8.528h26.698
		l-10.423,18.052c-0.64,1.109-0.26,2.526,0.848,3.166c1.106,0.639,2.526,0.262,3.166-0.848l10.423-18.052l4.205,7.284
		c0.429,0.744,1.209,1.159,2.009,1.159c0.394,0,0.792-0.1,1.157-0.311c1.108-0.64,1.489-2.058,0.848-3.166l-6.212-10.761
		c-0.095-0.165-0.212-0.309-0.339-0.441c-0.035-0.037-0.073-0.068-0.11-0.102c-0.102-0.094-0.21-0.177-0.326-0.249
		c-0.043-0.027-0.085-0.055-0.13-0.08c-0.155-0.084-0.315-0.154-0.484-0.201c-0.005-0.002-0.01-0.004-0.016-0.006
		c-0.177-0.048-0.359-0.067-0.543-0.072c-0.02-0.001-0.039-0.008-0.06-0.008h-31.004l-8.528-8.528c-0.905-0.905-2.373-0.905-3.278,0
		s-0.905,2.373,0,3.278l5.25,5.25H56.804c-0.828,0-1.593,0.442-2.007,1.159s-0.414,1.601,0,2.318l38.573,66.81h-30.4l-8.673-8.673
		c-0.905-0.905-2.373-0.905-3.278,0s-0.905,2.373,0,3.278l5.395,5.395H35.112c-1.28,0-2.318,1.038-2.318,2.318
		s1.038,2.318,2.318,2.318h21.3l-5.104,5.104c-0.905,0.905-0.905,2.372,0,3.278c0.452,0.453,1.046,0.679,1.639,0.679
		s1.187-0.226,1.639-0.679l8.383-8.382h30.4l-6.592,11.418c-0.64,1.108-0.26,2.526,0.848,3.166c0.365,0.211,0.764,0.311,1.157,0.311
		c0.801,0,1.58-0.416,2.01-1.159l6.592-11.418l36.566,63.333h-26.666l-8.85-8.85c-0.905-0.905-2.373-0.905-3.278,0
		s-0.905,2.373,0,3.278l5.573,5.572h-39.91l10.422-18.051c0.64-1.108,0.26-2.526-0.848-3.166c-1.11-0.642-2.527-0.26-3.166,0.848
		l-10.422,18.051l-4.206-7.285c-0.64-1.108-2.059-1.49-3.166-0.848c-1.109,0.64-1.489,2.058-0.848,3.166l6.213,10.761
		c0.105,0.181,0.232,0.344,0.377,0.487c0.077,0.076,0.168,0.13,0.253,0.194c0.076,0.057,0.145,0.124,0.227,0.171
		c0.093,0.053,0.196,0.083,0.295,0.123c0.087,0.035,0.169,0.081,0.26,0.105c0.165,0.044,0.335,0.06,0.507,0.067
		c0.03,0.001,0.058,0.012,0.089,0.012h43.57l-4.928,4.928c-0.905,0.905-0.905,2.372,0,3.278c0.452,0.453,1.046,0.679,1.639,0.679
		s1.187-0.226,1.639-0.679l8.205-8.205h31.036c0.829,0,1.594-0.442,2.007-1.159c0.414-0.717,0.414-1.601,0-2.318L101.399,103.479z"
		/>
	<path d="M79.006,135.307c0.801,0,1.58-0.416,2.01-1.159l2.059-3.566c0.64-1.108,0.26-2.526-0.848-3.166
		c-1.109-0.642-2.527-0.26-3.166,0.848l-2.059,3.566c-0.64,1.108-0.26,2.526,0.848,3.166
		C78.214,135.207,78.613,135.307,79.006,135.307z"/>
	<path d="M113.539,68.175l-2.058,3.565c-0.64,1.109-0.26,2.526,0.848,3.166c0.365,0.211,0.763,0.311,1.157,0.311
		c0.8,0,1.58-0.416,2.009-1.159l2.058-3.565c0.64-1.109,0.26-2.526-0.848-3.166C115.599,66.686,114.179,67.065,113.539,68.175z"/>
	<path d="M197.682,153.006c-1.28,0-2.318,1.038-2.318,2.318v7.425l-31.509-31.509l3.411-5.909l19.418,19.417
		c0.453,0.453,1.046,0.679,1.639,0.679s1.186-0.226,1.639-0.679c0.905-0.905,0.905-2.373,0-3.278l-20.296-20.295l10.886-18.855
		c0.414-0.717,0.414-1.601,0-2.318l-23.606-40.885c-0.64-1.11-2.061-1.486-3.166-0.848c-1.108,0.64-1.489,2.058-0.848,3.166
		l22.936,39.726l-33.699,58.367c-0.64,1.108-0.26,2.526,0.848,3.166c0.365,0.211,0.763,0.311,1.157,0.311
		c0.8,0,1.58-0.416,2.009-1.159l15.271-26.45l30.836,30.836h-7.425c-1.28,0-2.318,1.038-2.318,2.318s1.038,2.318,2.318,2.318h12.815
		c1.28,0,2.318-1.038,2.318-2.318v-13.226C200,154.044,198.962,153.006,197.682,153.006z"/>
</g>
<g>
	<path fill="#FFFFFF" d="M18.899,100.161l33.698-58.367c0.64-1.109,0.26-2.526-0.848-3.166c-1.11-0.642-2.527-0.26-3.166,0.848
		L36.34,60.681L3.957,28.298c-0.905-0.905-2.373-0.905-3.278,0s-0.905,2.373,0,3.278L33.94,64.837l-3.411,5.909L11.04,51.256
		c-0.905-0.905-2.373-0.905-3.278,0s-0.905,2.373,0,3.278L28.13,74.902l-13.914,24.1c-0.414,0.717-0.414,1.601,0,2.318
		l23.606,40.886c0.429,0.743,1.208,1.159,2.01,1.159c0.393,0,0.792-0.1,1.157-0.311c1.109-0.64,1.489-2.058,0.848-3.166
		L18.899,100.161z"/>
	<path fill="#FFFFFF" d="M101.399,102.479h38.753l-5.105,5.105c-0.905,0.905-0.905,2.372,0,3.278
		c0.453,0.453,1.046,0.679,1.639,0.679s1.186-0.226,1.639-0.679l8.384-8.383h12.947c1.28,0,2.318-1.038,2.318-2.318
		s-1.038-2.318-2.318-2.318h-12.948l-8.673-8.673c-0.905-0.905-2.372-0.905-3.278,0c-0.905,0.905-0.905,2.373,0,3.278l5.396,5.395
		h-38.966l6.592-11.418c0.64-1.109,0.26-2.526-0.848-3.166c-1.106-0.639-2.526-0.261-3.166,0.848L97.277,95.34L60.818,32.192h39.878
		l-5.25,5.25c-0.905,0.905-0.905,2.373,0,3.278c0.452,0.453,1.046,0.679,1.639,0.679s1.187-0.226,1.639-0.679l8.528-8.528h26.698
		l-10.423,18.052c-0.64,1.109-0.26,2.526,0.848,3.166c1.106,0.639,2.526,0.262,3.166-0.848l10.423-18.052l4.205,7.284
		c0.429,0.744,1.209,1.159,2.009,1.159c0.394,0,0.792-0.1,1.157-0.311c1.108-0.64,1.489-2.058,0.848-3.166l-6.212-10.761
		c-0.095-0.165-0.212-0.309-0.339-0.441c-0.035-0.037-0.073-0.068-0.11-0.102c-0.102-0.094-0.21-0.177-0.326-0.249
		c-0.043-0.027-0.085-0.055-0.13-0.08c-0.155-0.084-0.315-0.154-0.484-0.201c-0.005-0.002-0.01-0.004-0.016-0.006
		c-0.177-0.048-0.359-0.067-0.543-0.072c-0.02-0.001-0.039-0.008-0.06-0.008h-31.004l-8.528-8.528c-0.905-0.905-2.373-0.905-3.278,0
		s-0.905,2.373,0,3.278l5.25,5.25H56.804c-0.828,0-1.593,0.442-2.007,1.159s-0.414,1.601,0,2.318l38.573,66.81h-30.4l-8.673-8.673
		c-0.905-0.905-2.373-0.905-3.278,0s-0.905,2.373,0,3.278l5.395,5.395H35.112c-1.28,0-2.318,1.038-2.318,2.318
		s1.038,2.318,2.318,2.318h21.3l-5.104,5.104c-0.905,0.905-0.905,2.372,0,3.278c0.452,0.453,1.046,0.679,1.639,0.679
		s1.187-0.226,1.639-0.679l8.383-8.382h30.4l-6.592,11.418c-0.64,1.108-0.26,2.526,0.848,3.166c0.365,0.211,0.764,0.311,1.157,0.311
		c0.801,0,1.58-0.416,2.01-1.159l6.592-11.418l36.566,63.333h-26.666l-8.85-8.85c-0.905-0.905-2.373-0.905-3.278,0
		s-0.905,2.373,0,3.278l5.573,5.572h-39.91l10.422-18.051c0.64-1.108,0.26-2.526-0.848-3.166c-1.11-0.642-2.527-0.26-3.166,0.848
		l-10.422,18.051l-4.206-7.285c-0.64-1.108-2.059-1.49-3.166-0.848c-1.109,0.64-1.489,2.058-0.848,3.166l6.213,10.761
		c0.105,0.181,0.232,0.344,0.377,0.487c0.077,0.076,0.168,0.13,0.253,0.194c0.076,0.057,0.145,0.124,0.227,0.171
		c0.093,0.053,0.196,0.083,0.295,0.123c0.087,0.035,0.169,0.081,0.26,0.105c0.165,0.044,0.335,0.06,0.507,0.067
		c0.03,0.001,0.058,0.012,0.089,0.012h43.57l-4.928,4.928c-0.905,0.905-0.905,2.372,0,3.278c0.452,0.453,1.046,0.679,1.639,0.679
		s1.187-0.226,1.639-0.679l8.205-8.205h31.036c0.829,0,1.594-0.442,2.007-1.159c0.414-0.717,0.414-1.601,0-2.318L101.399,102.479z"
		/>
	<path fill="#FFFFFF" d="M79.006,134.307c0.801,0,1.58-0.416,2.01-1.159l2.059-3.566c0.64-1.108,0.26-2.526-0.848-3.166
		c-1.109-0.642-2.527-0.26-3.166,0.848l-2.059,3.566c-0.64,1.108-0.26,2.526,0.848,3.166
		C78.214,134.207,78.613,134.307,79.006,134.307z"/>
	<path fill="#FFFFFF" d="M113.539,67.175l-2.058,3.565c-0.64,1.109-0.26,2.526,0.848,3.166c0.365,0.211,0.763,0.311,1.157,0.311
		c0.8,0,1.58-0.416,2.009-1.159l2.058-3.565c0.64-1.109,0.26-2.526-0.848-3.166C115.599,65.686,114.179,66.065,113.539,67.175z"/>
	<path fill="#FFFFFF" d="M197.682,152.006c-1.28,0-2.318,1.038-2.318,2.318v7.425l-31.509-31.509l3.411-5.909l19.418,19.417
		c0.453,0.453,1.046,0.679,1.639,0.679s1.186-0.226,1.639-0.679c0.905-0.905,0.905-2.373,0-3.278l-20.296-20.295l10.886-18.855
		c0.414-0.717,0.414-1.601,0-2.318l-23.606-40.885c-0.64-1.11-2.061-1.486-3.166-0.848c-1.108,0.64-1.489,2.058-0.848,3.166
		l22.936,39.726l-33.699,58.367c-0.64,1.108-0.26,2.526,0.848,3.166c0.365,0.211,0.763,0.311,1.157,0.311
		c0.8,0,1.58-0.416,2.009-1.159l15.271-26.45l30.836,30.836h-7.425c-1.28,0-2.318,1.038-2.318,2.318s1.038,2.318,2.318,2.318h12.815
		c1.28,0,2.318-1.038,2.318-2.318v-13.226C200,153.044,198.962,152.006,197.682,152.006z"/>
</g>
<g>
	<g>
		<circle fill="#FFFFFF" cx="15.296" cy="100.533" r="9.32"/>
		<path fill="#39BBED" d="M15.296,96.213c2.382,0,4.32,1.938,4.32,4.32s-1.938,4.32-4.32,4.32s-4.32-1.938-4.32-4.32
			S12.914,96.213,15.296,96.213 M15.296,91.213c-5.147,0-9.32,4.173-9.32,9.32s4.173,9.32,9.32,9.32s9.32-4.173,9.32-9.32
			S20.443,91.213,15.296,91.213L15.296,91.213z"/>
	</g>
	<g>
		<circle fill="#FFFFFF" cx="120.49" cy="31.123" r="9.32"/>
		<path fill="#39BBED" d="M120.49,26.803c2.382,0,4.32,1.938,4.32,4.32s-1.938,4.32-4.32,4.32s-4.32-1.938-4.32-4.32
			S118.108,26.803,120.49,26.803 M120.49,21.803c-5.147,0-9.32,4.173-9.32,9.32s4.173,9.32,9.32,9.32s9.32-4.173,9.32-9.32
			S125.637,21.803,120.49,21.803L120.49,21.803z"/>
	</g>
	<g>
		<circle fill="#FFFFFF" cx="76.69" cy="169.868" r="9.32"/>
		<path fill="#39BBED" d="M76.69,165.548c2.382,0,4.32,1.938,4.32,4.32s-1.938,4.32-4.32,4.32s-4.32-1.938-4.32-4.32
			S74.308,165.548,76.69,165.548 M76.69,160.548c-5.147,0-9.32,4.173-9.32,9.32s4.173,9.32,9.32,9.32s9.32-4.173,9.32-9.32
			C86.01,164.721,81.837,160.548,76.69,160.548L76.69,160.548z"/>
	</g>
	<g>
		<circle fill="#FFFFFF" cx="97.384" cy="100.766" r="9.32"/>
		<path fill="#39BBED" d="M97.384,96.446c2.382,0,4.32,1.938,4.32,4.32s-1.938,4.32-4.32,4.32s-4.32-1.938-4.32-4.32
			S95.001,96.446,97.384,96.446 M97.384,91.446c-5.147,0-9.32,4.173-9.32,9.32s4.173,9.32,9.32,9.32s9.32-4.173,9.32-9.32
			S102.531,91.446,97.384,91.446L97.384,91.446z"/>
	</g>
	<g>
		<circle fill="#FFFFFF" cx="179.408" cy="100" r="9.32"/>
		<path fill="#39BBED" d="M179.408,95.68c2.382,0,4.32,1.938,4.32,4.32s-1.938,4.32-4.32,4.32s-4.32-1.938-4.32-4.32
			S177.026,95.68,179.408,95.68 M179.408,90.68c-5.147,0-9.32,4.173-9.32,9.32s4.173,9.32,9.32,9.32s9.32-4.173,9.32-9.32
			S184.556,90.68,179.408,90.68L179.408,90.68z"/>
	</g>
</g>
</svg>
