<?xml version="1.0" encoding="utf-8"?>
<!-- Generator: Adobe Illustrator 17.0.0, SVG Export Plug-In . SVG Version: 6.00 Build 0)  -->
<!DOCTYPE svg PUBLIC "-//W3C//DTD SVG 1.1//EN" "http://www.w3.org/Graphics/SVG/1.1/DTD/svg11.dtd">
<svg version="1.1" id="Layer_1" xmlns="http://www.w3.org/2000/svg" xmlns:xlink="http://www.w3.org/1999/xlink" x="0px" y="0px"
	 width="300px" height="32.741px" viewBox="0 8.949 300 32.741" enable-background="new 0 8.949 300 32.741" xml:space="preserve">
<g>
	<g>
		<path opacity="0.5" fill="#FFFFFF" d="M6.702,17.576c1.99-1.52,4.867-4.385,6.393-6.367s4.67-2.821,6.986-1.864
			c2.317,0.957,6.246,2.005,8.733,2.33s4.788,2.617,5.114,5.094c0.326,2.476,1.379,6.39,2.34,8.697s0.118,5.438-1.872,6.958
			s-4.867,4.385-6.393,6.367c-1.526,1.982-4.67,2.821-6.986,1.864c-2.317-0.957-6.246-2.005-8.733-2.33s-4.788-2.617-5.114-5.094
			c-0.326-2.476-1.379-6.39-2.34-8.697C3.869,22.227,4.712,19.096,6.702,17.576z"/>
		<path fill="#FFFFFF" d="M20.594,17.576c1.99-1.52,4.867-4.385,6.393-6.367c1.526-1.982,4.67-2.821,6.986-1.864
			c2.317,0.957,6.246,2.005,8.733,2.33c2.487,0.325,4.788,2.617,5.114,5.094c0.326,2.476,1.379,6.39,2.34,8.697
			s0.118,5.438-1.872,6.958s-4.867,4.385-6.393,6.367c-1.526,1.982-4.67,2.821-6.986,1.864c-2.317-0.957-6.246-2.005-8.733-2.33
			s-4.788-2.617-5.114-5.094c-0.326-2.476-1.379-6.39-2.34-8.697C17.761,22.227,18.603,19.096,20.594,17.576z"/>
	</g>
	<g>
		<path fill="#FFFFFF" d="M59.869,15.041v-3.257h9.096v3.257h-2.728l3.016,13.299c0.064,0.273,0.096,0.578,0.144,0.93
			c0.065,0.337,0.097,0.61,0.113,0.802l0.016,0.305h0.128c0.08-0.737,0.208-1.411,0.369-2.038l4.363-16.555h3.449L82.2,28.34
			c0.08,0.273,0.145,0.578,0.209,0.93c0.064,0.337,0.112,0.61,0.128,0.802l0.032,0.305h0.128c0.048-0.737,0.128-1.411,0.257-2.038
			l3.032-13.299h-2.728v-3.257h9.096v3.257H90.22l-4.957,20.069h-4.829L76.52,20.383c-0.064-0.289-0.144-0.594-0.208-0.947
			c-0.064-0.37-0.096-0.658-0.128-0.866l-0.032-0.32h-0.097c-0.064,0.786-0.176,1.491-0.353,2.134L71.788,35.11H66.96l-4.957-20.069
			H59.869L59.869,15.041z"/>
		<path fill="#FFFFFF" d="M92.585,26.736c0-1.669,0.417-3.176,1.235-4.524c0.834-1.347,1.941-2.39,3.337-3.128
			c1.412-0.753,2.952-1.123,4.62-1.123c1.7,0,3.224,0.353,4.636,1.107c1.412,0.738,2.519,1.797,3.353,3.144
			c0.834,1.348,1.251,2.856,1.251,4.524c0,1.668-0.401,3.192-1.235,4.539c-0.834,1.348-1.925,2.391-3.337,3.128
			c-1.396,0.738-2.936,1.107-4.636,1.107c-1.7,0-3.24-0.369-4.652-1.107c-1.396-0.737-2.503-1.764-3.337-3.112
			C93.003,29.945,92.585,28.42,92.585,26.736z M96.821,26.736c0,1.524,0.481,2.776,1.444,3.753c0.979,0.962,2.166,1.46,3.545,1.46
			c1.38,0,2.551-0.498,3.513-1.46c0.962-0.978,1.444-2.23,1.444-3.753c0-1.524-0.481-2.776-1.444-3.754
			c-0.962-0.995-2.134-1.476-3.513-1.476s-2.551,0.481-3.529,1.476C97.318,23.961,96.821,25.212,96.821,26.736z"/>
		<path fill="#FFFFFF" d="M113.477,21.475v-3.112h4.363c1.508,0,2.246,0.673,2.246,2.021v0.995l-0.064,1.043h0.064
			c0.401-1.252,1.075-2.279,2.021-3.08c0.962-0.819,2.053-1.22,3.289-1.22l0.754,0.065v4.107c-0.272-0.049-0.61-0.065-1.011-0.065
			c-0.802,0-1.54,0.145-2.182,0.498c-0.642,0.337-1.155,0.802-1.54,1.379c-0.385,0.578-0.658,1.219-0.866,1.941
			c-0.192,0.706-0.305,1.476-0.305,2.294v3.642h2.39v3.128h-8.999v-3.128h2.438v-9.786c0-0.481-0.241-0.721-0.722-0.721
			L113.477,21.475L113.477,21.475z"/>
		<path fill="#FFFFFF" d="M127.372,14.897v-3.112h6.77v12.914h2.198l2.727-3.224h-1.941v-3.112h8.053v3.112h-2.166l-3.642,4.299
			v0.064c0.032,0,0.096,0.016,0.192,0.096c0.113,0.064,0.273,0.208,0.481,0.466c0.225,0.24,0.417,0.529,0.61,0.866l2.358,4.139
			c0.144,0.225,0.289,0.385,0.481,0.466c0.192,0.064,0.497,0.112,0.899,0.112h0.947v3.128h-3.113c-0.722,0-1.267-0.096-1.62-0.272
			c-0.353-0.192-0.69-0.578-1.011-1.171l-3.016-5.295c-0.064-0.144-0.16-0.24-0.272-0.337c-0.096-0.096-0.225-0.16-0.369-0.192
			c-0.128-0.048-0.24-0.08-0.369-0.08c-0.113-0.016-0.257-0.016-0.449-0.016h-0.979v4.235h1.813v3.128h-8.422v-3.128h2.438V14.897
			H127.372z"/>
		<path fill="#FFFFFF" d="M148.102,30.249v-2.663h3.914v1.748c0,0.722,0.385,1.284,1.187,1.733c0.802,0.433,1.781,0.658,2.92,0.658
			c1.219,0,2.181-0.257,2.919-0.754c0.754-0.514,1.123-1.219,1.123-2.134c0-0.24-0.016-0.45-0.081-0.658
			c-0.064-0.224-0.112-0.417-0.208-0.577c-0.08-0.176-0.208-0.337-0.369-0.498c-0.16-0.176-0.289-0.305-0.433-0.433
			c-0.128-0.128-0.32-0.257-0.577-0.402c-0.24-0.16-0.449-0.272-0.625-0.353c-0.16-0.096-0.401-0.192-0.722-0.32
			c-0.305-0.144-0.545-0.24-0.738-0.305c-0.176-0.08-0.449-0.176-0.802-0.305c-0.353-0.144-0.61-0.257-0.802-0.32
			c-0.513-0.208-0.947-0.37-1.331-0.53c-0.369-0.16-0.786-0.353-1.252-0.593c-0.449-0.257-0.85-0.482-1.171-0.722
			c-0.321-0.257-0.625-0.546-0.962-0.882c-0.321-0.353-0.577-0.689-0.786-1.075c-0.192-0.385-0.353-0.819-0.481-1.331
			c-0.128-0.514-0.192-1.059-0.192-1.637c0-1.139,0.209-2.118,0.642-2.984c0.449-0.866,1.027-1.539,1.765-2.038
			c0.754-0.513,1.588-0.882,2.486-1.123c0.914-0.257,1.893-0.369,2.919-0.369c1.267,0,2.454,0.144,3.545,0.449
			c1.107,0.289,2.005,0.77,2.743,1.412c0.738,0.641,1.107,1.379,1.107,2.246v3.064h-3.898v-1.572c0-0.577-0.337-1.011-1.043-1.331
			c-0.69-0.32-1.508-0.481-2.454-0.481c-1.011,0-1.844,0.192-2.503,0.641c-0.642,0.433-0.978,1.075-0.978,1.925
			c0,0.482,0.112,0.93,0.337,1.315s0.562,0.722,1.011,1.011s0.899,0.514,1.348,0.722c0.465,0.192,1.043,0.433,1.716,0.69
			c0.096,0.032,0.16,0.048,0.192,0.064c0.61,0.224,1.107,0.401,1.492,0.561c0.385,0.144,0.85,0.353,1.396,0.61
			c0.545,0.257,0.995,0.497,1.332,0.738c0.353,0.224,0.706,0.513,1.091,0.882c0.385,0.353,0.69,0.722,0.899,1.124
			c0.224,0.385,0.385,0.849,0.529,1.379c0.16,0.513,0.224,1.091,0.224,1.701c0,1.155-0.224,2.181-0.69,3.096
			c-0.449,0.898-1.059,1.62-1.861,2.181c-0.786,0.545-1.684,0.979-2.679,1.267s-2.053,0.433-3.176,0.433
			c-0.995,0-1.941-0.112-2.888-0.337c-0.93-0.224-1.781-0.545-2.567-0.962c-0.77-0.433-1.38-0.995-1.861-1.669
			C148.343,31.854,148.102,31.084,148.102,30.249z"/>
		<path fill="#FFFFFF" d="M166.86,14.897v-3.112h6.77v8.149c0,0.24,0.016,0.482-0.016,0.722c-0.016,0.224-0.032,0.401-0.064,0.529
			l-0.016,0.161h0.064c0.465-0.914,1.203-1.701,2.23-2.375c1.027-0.673,2.214-1.011,3.545-1.011c3.914,0,5.855,2.118,5.855,6.368
			v7.652h2.44v3.128h-6.61v-9.914c0-1.123-0.192-1.957-0.577-2.534c-0.385-0.594-1.059-0.882-2.054-0.882
			c-1.444,0-2.599,0.53-3.481,1.621c-0.866,1.091-1.315,2.422-1.315,4.027v4.556h2.406v3.128h-9.015v-3.128h2.438V14.897H166.86z"/>
		<path fill="#FFFFFF" d="M189.292,30.409c0-0.705,0.128-1.347,0.385-1.925c0.257-0.578,0.577-1.043,0.994-1.428
			c0.418-0.385,0.915-0.722,1.492-1.011s1.14-0.513,1.701-0.673c0.577-0.161,1.17-0.289,1.813-0.385
			c0.657-0.096,1.218-0.144,1.669-0.176c0.465-0.032,0.93-0.048,1.378-0.048h1.06V24.2c0-1.011-0.257-1.748-0.835-2.198
			c-0.561-0.465-1.315-0.689-2.262-0.689c-0.737,0-1.491,0.128-2.294,0.401c-0.786,0.257-1.395,0.529-1.813,0.802l-0.625,0.401
			l-1.54-2.888c0.08-0.064,0.176-0.128,0.305-0.224c0.128-0.096,0.418-0.272,0.867-0.497c0.449-0.241,0.914-0.45,1.395-0.626
			c0.483-0.192,1.092-0.353,1.829-0.497c0.739-0.161,1.492-0.225,2.246-0.225c2.247,0,3.962,0.562,5.134,1.701
			c1.188,1.123,1.765,2.759,1.765,4.909v6.689c0,0.482,0.24,0.722,0.721,0.722h1.509v3.128h-3.947c-0.721,0-1.252-0.16-1.604-0.497
			c-0.353-0.353-0.529-0.77-0.529-1.284v-0.192c0-0.16,0-0.32,0.016-0.449c0.032-0.145,0.048-0.241,0.064-0.305l0.016-0.096h-0.064
			c-0.032,0.08-0.096,0.176-0.176,0.337c-0.064,0.144-0.24,0.401-0.561,0.786c-0.306,0.37-0.627,0.69-1.012,0.979
			c-0.369,0.289-0.866,0.53-1.509,0.77c-0.625,0.224-1.298,0.353-2.038,0.353c-0.978,0-1.877-0.192-2.711-0.545
			c-0.817-0.37-1.492-0.947-2.038-1.733C189.565,32.431,189.292,31.5,189.292,30.409z M193.495,30.089
			c0,0.642,0.224,1.187,0.657,1.637c0.449,0.433,1.043,0.657,1.781,0.657c1.09,0,1.989-0.465,2.743-1.427
			c0.771-0.962,1.14-2.005,1.14-3.112v-0.546h-0.691c-0.417,0-0.801,0-1.218,0.032c-0.401,0.032-0.867,0.097-1.444,0.225
			c-0.561,0.112-1.042,0.257-1.46,0.449c-0.417,0.192-0.753,0.45-1.058,0.819C193.656,29.174,193.495,29.608,193.495,30.089z"/>
		<path fill="#FFFFFF" d="M207.696,21.475v-3.112h4.315c0.739,0,1.252,0.144,1.572,0.433c0.337,0.289,0.497,0.658,0.497,1.139v0.096
			l-0.032,0.754h0.064c0.048-0.08,0.096-0.176,0.176-0.305c0.096-0.128,0.274-0.353,0.579-0.674c0.32-0.337,0.657-0.626,1.026-0.866
			c0.385-0.257,0.883-0.481,1.524-0.673c0.657-0.209,1.348-0.305,2.086-0.305c2.262,0,4.043,0.802,5.391,2.423
			c1.346,1.604,2.021,3.721,2.021,6.353c0,2.63-0.707,4.732-2.149,6.353c-1.444,1.604-3.273,2.422-5.503,2.422
			c-0.609,0-1.188-0.08-1.765-0.24c-0.561-0.16-1.028-0.369-1.38-0.593c-0.353-0.241-0.657-0.482-0.93-0.706
			c-0.257-0.24-0.449-0.433-0.577-0.594l-0.178-0.24h-0.064c0.064,0.385,0.098,0.866,0.098,1.443v3.979h2.438v3.128h-9.033v-3.128
			h2.422V22.196c0-0.481-0.24-0.721-0.721-0.721L207.696,21.475L207.696,21.475z M214.337,26.832c0,1.379,0.37,2.582,1.108,3.609
			c0.753,1.027,1.781,1.54,3.063,1.54c1.204,0,2.199-0.449,3.001-1.379s1.204-2.199,1.204-3.802c0-1.589-0.386-2.856-1.156-3.818
			c-0.769-0.962-1.765-1.443-3.017-1.443c-1.186,0-2.166,0.433-2.983,1.331C214.755,23.769,214.337,25.084,214.337,26.832z"/>
		<path fill="#FFFFFF" d="M229.26,26.736c0-2.599,0.787-4.685,2.358-6.32c1.589-1.637,3.642-2.455,6.144-2.455
			c2.344,0,4.155,0.738,5.471,2.246c1.332,1.509,1.989,3.401,1.989,5.711l-0.096,1.411h-11.599c0.128,1.476,0.675,2.615,1.604,3.433
			c0.947,0.802,2.086,1.219,3.418,1.219c0.513,0,1.026-0.048,1.54-0.176c0.529-0.128,0.962-0.289,1.346-0.45
			c0.385-0.176,0.739-0.353,1.043-0.513c0.32-0.176,0.545-0.32,0.705-0.45l0.224-0.176l1.621,2.952
			c-0.064,0.064-0.176,0.144-0.305,0.257c-0.128,0.096-0.417,0.289-0.867,0.562c-0.449,0.257-0.898,0.497-1.395,0.706
			c-0.481,0.192-1.108,0.385-1.877,0.561c-0.771,0.16-1.54,0.257-2.326,0.257c-1.797,0-3.369-0.401-4.766-1.203
			c-1.378-0.802-2.438-1.877-3.159-3.192C229.629,29.784,229.26,28.324,229.26,26.736z M233.624,24.859h7.3
			c-0.032-1.123-0.337-2.021-0.962-2.679c-0.611-0.673-1.38-0.995-2.295-0.995c-1.042,0-1.909,0.321-2.647,0.995
			C234.298,22.854,233.833,23.736,233.624,24.859z"/>
		<path fill="#FFFFFF" d="M248.723,35.11v-4.203h4.171v4.203H248.723z"/>
		<path fill="#FFFFFF" d="M256.538,21.475v-3.112h6.771v13.62h2.39v3.128h-9v-3.128h2.44V21.475H256.538z M259.106,15.491v-3.706
			h4.203v3.706H259.106z"/>
		<path fill="#FFFFFF" d="M267.802,26.736c0-1.669,0.418-3.176,1.236-4.524c0.834-1.347,1.941-2.39,3.337-3.128
			c1.411-0.753,2.951-1.123,4.62-1.123c1.701,0,3.224,0.353,4.636,1.107c1.412,0.738,2.518,1.797,3.353,3.144
			c0.834,1.348,1.25,2.856,1.25,4.524c0,1.668-0.401,3.192-1.234,4.539c-0.835,1.348-1.925,2.391-3.337,3.128
			c-1.396,0.738-2.935,1.107-4.636,1.107s-3.241-0.369-4.652-1.107c-1.396-0.737-2.504-1.764-3.337-3.112
			C268.22,29.945,267.802,28.42,267.802,26.736z M272.037,26.736c0,1.524,0.483,2.776,1.444,3.753
			c0.979,0.962,2.166,1.46,3.546,1.46c1.378,0,2.55-0.498,3.514-1.46c0.962-0.978,1.443-2.23,1.443-3.753
			c0-1.524-0.481-2.776-1.443-3.754c-0.963-0.995-2.135-1.476-3.514-1.476c-1.38,0-2.55,0.481-3.53,1.476
			C272.535,23.961,272.037,25.212,272.037,26.736z"/>
	</g>
</g>
</svg>
